<svg width="25" height="25" viewBox="0 0 25 25" fill="none" xmlns="http://www.w3.org/2000/svg">
<path d="M23 12.4C23.0017 13.7434 22.7372 15.074 22.2217 16.3146C21.7061 17.5553 20.9499 18.6815 19.9966 19.6282C19.0511 20.572 17.9288 21.3203 16.694 21.8302C15.4592 22.3401 14.1359 22.6017 12.8 22.5999C7.16652 22.5999 2.59999 18.0334 2.59999 12.4C2.59642 9.78456 3.60105 7.26841 5.40498 5.37471C6.35682 4.37031 7.50359 3.57071 8.77513 3.02482C10.0467 2.47894 11.4162 2.19826 12.8 2.19996C14.1359 2.19823 15.4592 2.4598 16.694 2.96971C17.9288 3.47962 19.0511 4.22788 19.9966 5.17173C20.9499 6.1184 21.7061 7.24461 22.2217 8.48527C22.7372 9.72593 23.0017 11.0565 23 12.4V12.4Z" stroke="#EB4B89" stroke-width="4" stroke-linecap="round" stroke-linejoin="round"/>
<path d="M22.9999 12.4001C21.5118 12.4001 17.4063 11.8391 13.7317 13.4522C9.73995 15.2051 6.84979 17.9239 5.59009 19.6151" stroke="#EB4B89" stroke-width="4" stroke-linecap="round" stroke-linejoin="round"/>
<path d="M8.97498 2.94169C10.5713 4.41508 14.0546 8.16612 15.35 11.8901C16.6454 15.6142 17.1248 20.1929 17.4206 21.496" stroke="#EB4B89" stroke-width="4" stroke-linecap="round" stroke-linejoin="round"/>
<path d="M2.67859 11.125C4.60537 11.2413 9.70587 11.3458 12.9699 9.95199C16.2339 8.55816 19.0424 5.9944 20.0058 5.18095M3.36505 16.2826C4.26383 18.4582 5.88481 20.2577 7.95504 21.378" stroke="#EB4B89" stroke-width="4" stroke-linecap="round" stroke-linejoin="round"/>
<path d="M2.59999 12.4C2.59642 9.78455 3.60105 7.26841 5.40498 5.37471M12.8 2.19996C11.4162 2.19826 10.0467 2.47894 8.77513 3.02482C7.50359 3.57071 6.35682 4.37031 5.40498 5.37471M16.88 3.0486C18.0416 3.55683 19.0984 4.2768 19.9966 5.17173C20.9499 6.1184 21.7061 7.24461 22.2217 8.48527C22.7372 9.72593 23.0017 11.0565 23 12.4C23 13.6556 22.773 14.8587 22.3574 15.9699M12.8 22.5999C14.1359 22.6017 15.4592 22.3401 16.694 21.8302C17.9288 21.3203 19.0511 20.572 19.9966 19.6282" stroke="#EB4B89" stroke-width="4" stroke-linecap="round" stroke-linejoin="round"/>
</svg>
